HIERARCHY
ROOT Hips
{
	OFFSET 0.00000 0.00000 0.00000
	CHANNELS 6 Xposition Yposition Zposition Zrotation Yrotation Xrotation 
	JOINT LHipJoint
	{
		OFFSET 0 0 0
		CHANNELS 3 Zrotation Yrotation Xrotation
		JOINT LeftUpLeg
		{
			OFFSET 1.57338 -1.94743 0.52196
			CHANNELS 3 Zrotation Yrotation Xrotation
			JOINT LeftLeg
			{
				OFFSET 2.60333 -7.15259 0.00000
				CHANNELS 3 Zrotation Yrotation Xrotation
				JOINT LeftFoot
				{
					OFFSET 2.77855 -7.63400 0.00000
					CHANNELS 3 Zrotation Yrotation Xrotation
					JOINT LeftToeBase
					{
						OFFSET 0.19847 -0.54529 2.28466
						CHANNELS 3 Zrotation Yrotation Xrotation
						End Site
						{
							OFFSET 0.00000 -0.00000 1.17993
						}
					}
				}
			}
		}
	}
	JOINT RHipJoint
	{
		OFFSET 0 0 0
		CHANNELS 3 Zrotation Yrotation Xrotation
		JOINT RightUpLeg
		{
			OFFSET -1.61527 -1.94743 0.52196
			CHANNELS 3 Zrotation Yrotation Xrotation
			JOINT RightLeg
			{
				OFFSET -2.53829 -6.97390 0.00000
				CHANNELS 3 Zrotation Yrotation Xrotation
				JOINT RightFoot
				{
					OFFSET -2.80762 -7.71387 0.00000
					CHANNELS 3 Zrotation Yrotation Xrotation
					JOINT RightToeBase
					{
						OFFSET -0.30536 -0.83898 2.28801
						CHANNELS 3 Zrotation Yrotation Xrotation
						End Site
						{
							OFFSET -0.00000 -0.00000 1.21323
						}
					}
				}
			}
		}
	}
	JOINT LowerBack
	{
		OFFSET 0 0 0
		CHANNELS 3 Zrotation Yrotation Xrotation
		JOINT Spine
		{
			OFFSET -0.04381 1.99497 -0.19778
			CHANNELS 3 Zrotation Yrotation Xrotation
			JOINT Spine1
			{
				OFFSET -0.01959 2.01295 -0.04372
				CHANNELS 3 Zrotation Yrotation Xrotation
				JOINT Neck
				{
					OFFSET 0 0 0
					CHANNELS 3 Zrotation Yrotation Xrotation
					JOINT Neck1
					{
						OFFSET -0.05459 1.76913 0.09708
						CHANNELS 3 Zrotation Yrotation Xrotation
						JOINT Head
						{
							OFFSET 0.09461 1.77368 -0.11172
							CHANNELS 3 Zrotation Yrotation Xrotation
							End Site
							{
								OFFSET 0.03812 1.78157 -0.04834
							}
						}
					}
				}
				JOINT LeftShoulder
				{
					OFFSET 0 0 0
					CHANNELS 3 Zrotation Yrotation Xrotation
					JOINT LeftArm
					{
						OFFSET 3.50922 1.24034 -0.28866
						CHANNELS 3 Zrotation Yrotation Xrotation
						JOINT LeftForeArm
						{
							OFFSET 5.40188 -0.00000 0.00000
							CHANNELS 3 Zrotation Yrotation Xrotation
							JOINT LeftHand
							{
								OFFSET 3.68559 -0.00000 0.00000
								CHANNELS 3 Zrotation Yrotation Xrotation
								JOINT LeftFingerBase
								{
									OFFSET 0 0 0
									CHANNELS 3 Zrotation Yrotation Xrotation
									JOINT LeftHandIndex1
									{
										OFFSET 0.61753 -0.00000 0.00000
										CHANNELS 3 Zrotation Yrotation Xrotation
										End Site
										{
											OFFSET 0.49787 -0.00000 0.00000
										}
									}
								}
								JOINT LThumb
								{
									OFFSET 0 0 0
									CHANNELS 3 Zrotation Yrotation Xrotation
									End Site
									{
										OFFSET 0.50547 -0.00000 0.50547
									}
								}
							}
						}
					}
				}
				JOINT RightShoulder
				{
					OFFSET 0 0 0
					CHANNELS 3 Zrotation Yrotation Xrotation
					JOINT RightArm
					{
						OFFSET -2.95373 1.39649 -0.27346
						CHANNELS 3 Zrotation Yrotation Xrotation
						JOINT RightForeArm
						{
							OFFSET -6.10670 -0.00000 -0.00000
							CHANNELS 3 Zrotation Yrotation Xrotation
							JOINT RightHand
							{
								OFFSET -3.63052 -0.00000 0.00000
								CHANNELS 3 Zrotation Yrotation Xrotation
								JOINT RightFingerBase
								{
									OFFSET 0 0 0
									CHANNELS 3 Zrotation Yrotation Xrotation
									JOINT RightHandIndex1
									{
										OFFSET -0.58385 -0.00000 0.00000
										CHANNELS 3 Zrotation Yrotation Xrotation
										End Site
										{
											OFFSET -0.47071 -0.00000 0.00000
										}
									}
								}
								JOINT RThumb
								{
									OFFSET 0 0 0
									CHANNELS 3 Zrotation Yrotation Xrotation
									End Site
									{
										OFFSET -0.47790 -0.00000 0.47790
									}
								}
							}
						}
					}
				}
			}
		}
	}
}
MOTION
Frames: 14
Frame Time: 0.0266667
0.00 0.00 0.00 0 0 0 0 0 0 -21 0 0 0 0 0 0 0 0 0 0 0 0 0 0 21 0 0 0 0 0 0 0 0 0 0 0 0 0 0 0 0 0 0 0 0 0 0 -16 0 0 21 0 0 11 0 0 0 -8 0 0 0 0 0 0 0 0 0 0 0 0 0 0 0 0 0 0 0 0 8 0 0 0 0 0 0 0 0 0 0 0 0 0 0 0 0 0
0.00 0.00 0.00 -4.1514 -34.8816 1.5350 0.0000 0.0000 0.0000 -20.0693 -7.7308 -2.5943 1.5339 7.8191 22.1659 1.0503 18.6826 -33.6193 0.3015 3.5303 9.7589 0.0000 0.0000 0.0000 16.3101 23.0290 -5.5795 -1.8205 -8.4818 24.1872 -0.2601 -1.2637 -10.1794 -0.1967 2.8560 -7.8781 -4.2494 -0.0814 7.3713 -0.3103 -0.4641 1.2267 2.1120 -0.1974 -2.8334 -5.0349 -2.5932 -9.6994 10.8117 -4.5678 14.7648 3.9097 -1.6935 6.4398 -0.0000 0.0000 0.0000 -87.8742 -0.0173 0.5651 7.7619 -13.1662 -0.8971 -0.0000 -0.0000 21.7184 27.9173 19.7461 10.1493 -7.1250 0.0000 -0.0000 -0.4653 52.0880 -0.0812 -0.0000 0.0000 0.0000 82.0038 -5.0905 24.1592 -22.0207 33.0004 -6.5971 0.0000 0.0000 10.3173 -25.5643 2.3126 -1.1058 7.1250 -0.0000 -0.0000 0.7871 -27.4163 0.3363
0.00 0.00 0.00 -3.3665 -55.3499 2.0210 0.0000 0.0000 0.0000 -20.8752 -1.8645 -3.2615 1.3471 7.3479 20.7503 3.3588 21.7019 -46.9850 1.0849 6.6201 18.5945 0.0000 0.0000 0.0000 14.5453 15.1035 -6.2905 -2.5316 -9.8951 28.6376 -0.1945 -13.3786 -21.1708 -0.0382 -1.2623 3.4707 -4.9864 -1.3751 5.9845 0.0322 -2.1570 1.1417 2.9917 -1.0537 -1.9904 -7.7412 -8.0736 -4.1141 4.1120 -11.8853 25.0971 1.5292 -6.0947 9.2698 0.0000 -0.0000 0.0000 -84.6125 -3.6145 -1.5110 6.5373 -11.1553 -0.6391 -0.0000 -0.0000 28.1181 24.8864 21.7827 9.7675 -7.1250 0.0000 -0.0000 -4.1113 53.7081 -0.8814 0.0000 -0.0000 0.0000 80.3259 -7.0147 18.9095 -18.2371 28.4597 -4.6617 0.0000 0.0000 15.1293 -24.4756 4.1529 -1.8881 7.1250 -0.0000 -0.0000 1.6315 -25.4181 0.7736
0.00 0.00 0.00 0.6527 -77.2347 -1.2357 0.0000 0.0000 0.0000 -11.1271 15.9261 -12.4651 3.9792 12.1326 36.2028 -0.3545 25.9025 -34.3707 0.1756 2.6992 7.4424 0.0000 0.0000 0.0000 21.4439 15.3714 -0.8482 -2.0351 -8.9389 25.6042 -1.3474 -7.1086 -25.5377 -0.2268 -3.0653 8.4605 -0.8448 -2.1581 5.0366 1.4533 -2.9283 1.8256 2.1281 -1.4836 -0.8256 -6.4593 -6.5114 -2.1403 1.6367 -10.2197 29.2019 0.6558 -5.6692 10.0504 -0.0000 0.0000 0.0000 -81.6638 1.6105 16.0028 13.9680 -22.6890 -2.8158 -0.0000 -0.0000 8.8593 24.8503 21.3160 9.5563 -7.1250 0.0000 -0.0000 -4.0112 53.2044 -0.8106 -0.0000 0.0000 0.0000 77.1383 -9.4122 17.8619 -16.3862 26.0415 -3.8139 0.0000 0.0000 18.9401 -22.2710 4.8690 -1.9908 7.1250 -0.0000 -0.0000 3.2907 -24.7206 1.6155
0.00 0.00 0.00 0.3616 -81.8158 -0.9232 0.0000 0.0000 0.0000 -7.4645 16.0508 -15.8418 5.9156 14.3461 44.6422 -2.0510 26.1984 -20.7253 0.6069 4.9865 13.8700 0.0000 0.0000 0.0000 23.1581 16.1097 0.3273 -1.9532 -8.7679 25.0720 -1.3757 -4.5765 -24.2250 -0.2559 -3.2546 8.9883 0.5696 -1.9691 5.2156 1.3398 -2.6148 1.9452 1.2087 -1.3249 -0.8844 -6.3493 -5.3676 -2.3941 1.9477 -8.7963 29.8327 0.8674 -5.0050 10.2674 0.0000 -0.0000 0.0000 -82.4749 2.7737 14.5350 13.7590 -22.3892 -2.7356 -0.0000 -0.0000 10.0135 23.9567 21.5278 9.2603 -7.1250 0.0000 -0.0000 -4.9936 53.2592 -1.0165 0.0000 -0.0000 0.0000 76.6146 -9.0777 20.5778 -18.5035 28.7971 -4.7893 0.0000 0.0000 18.6664 -24.3428 6.4116 -2.8922 7.1250 -0.0000 -0.0000 1.7681 -22.9494 0.9392
0.00 0.00 0.00 189.4480 -82.4324 -186.3950 0.0000 0.0000 0.0000 -17.3005 -7.4674 -24.9874 1.0173 6.4169 17.9990 -0.3518 15.5584 -17.9997 0.0304 -1.1256 -3.0945 0.0000 0.0000 0.0000 25.7280 12.6647 7.9973 -1.1804 -6.8955 19.4061 -1.0902 7.9706 -18.6803 -0.3512 -3.8077 10.5362 2.1557 1.5789 6.7910 0.7200 2.1771 2.6333 -0.6311 1.0636 -1.0365 -4.6571 -3.4396 -1.9273 0.9628 -6.2916 31.5028 0.4681 -3.8560 10.5780 0.0000 0.0000 0.0000 -85.7444 5.7895 12.4944 12.1854 -20.0821 -2.1655 -0.0000 -0.0000 15.3493 24.1119 23.6336 10.1721 -7.1250 0.0000 -0.0000 -5.5342 55.5085 -1.4306 0.0000 0.0000 0.0000 69.4196 2.5580 37.3606 -28.7831 39.8273 -10.6215 0.0000 0.0000 25.8311 -44.0303 9.1897 -8.7765 7.1250 -0.0000 -0.0000 -11.9133 -17.4600 -7.9648
0.00 0.00 0.00 188.4390 -76.8218 -186.7890 0.0000 0.0000 0.0000 -18.9645 -1.1433 -24.9382 2.5460 9.9210 28.7213 -0.2314 14.1540 -17.2233 0.0008 0.1853 0.5092 0.0000 0.0000 0.0000 23.2256 11.9033 6.1697 -3.4418 -11.3780 33.5656 0.2899 14.6718 -6.5887 -0.0798 1.8217 -5.0132 -0.2694 3.0070 5.5316 -2.2304 3.8803 2.8372 -2.3478 1.9139 -0.0387 -4.8752 -1.6697 -2.3668 2.2701 -4.2048 32.7681 1.1575 -2.8548 11.1107 -0.0000 -0.0000 0.0000 -82.4843 5.5083 6.6865 10.2466 -17.1243 -1.5468 -0.0000 -0.0000 19.5385 24.3895 25.1325 10.8997 -7.1250 0.0000 -0.0000 -5.8086 57.1383 -1.7313 -0.0000 -0.0000 0.0000 74.3452 0.3805 38.4806 -27.6627 38.8038 -9.9116 0.0000 0.0000 30.7022 -43.2187 6.6724 -6.2311 7.1250 -0.0000 -0.0000 -11.8361 -20.9391 -6.9722
0.00 0.00 0.00 174.0020 -77.8962 -173.9750 0.0000 0.0000 0.0000 -23.6406 -0.1002 -20.9129 2.4651 9.7741 28.2482 -0.0672 13.1762 -17.8899 0.0392 1.2786 3.5157 0.0000 0.0000 0.0000 17.8230 13.1228 -2.1950 -7.1476 -15.4550 49.4305 0.4969 12.3823 5.0339 -0.7389 5.4912 -15.3151 -4.0689 2.7264 6.7571 -3.6306 3.1512 2.6746 -1.7009 1.5001 -1.0383 -5.3379 -0.8290 -2.7746 1.8664 -2.7747 33.0284 1.2278 -2.3135 11.2333 0.0000 -0.0000 0.0000 -81.5249 5.4736 9.9522 11.1860 -18.5728 -1.8347 -0.0000 -0.0000 14.9702 27.8683 25.1459 12.6632 -7.1250 0.0000 -0.0000 -1.9711 57.9370 -0.6242 0.0000 -0.0000 0.0000 73.5059 -0.4415 41.5990 -26.2330 37.4378 -9.0289 0.0000 0.0000 33.9955 -42.7637 4.3921 -4.0512 7.1250 -0.0000 -0.0000 -11.9251 -24.0180 -6.1679
0.00 0.00 0.00 114.8420 -83.9418 -116.2280 0.0000 0.0000 0.0000 -29.4765 -1.0869 -15.0201 2.4278 9.7054 28.0278 0.3862 7.4255 -16.7444 0.0025 0.3221 0.8851 0.0000 0.0000 0.0000 11.4917 15.3919 -16.2602 -10.3403 -17.5968 60.6199 0.2213 15.2408 -8.0855 -1.1240 6.7343 -18.9305 -8.0675 1.7632 7.0076 -4.7012 1.5446 3.4022 -0.4658 0.6169 -0.4852 -6.4712 -1.1304 -1.7361 1.1523 -2.8968 33.4693 1.1631 -2.5885 11.2330 0.0000 0.0000 0.0000 -79.1098 -1.1831 16.9620 13.8689 -22.5470 -2.7776 -0.0000 -0.0000 9.1784 35.0338 22.0583 14.7508 -7.1250 0.0000 -0.0000 6.8500 56.1785 1.8843 0.0000 0.0000 0.0000 73.2900 -1.0731 39.3305 -20.7407 31.5244 -5.9138 0.0000 0.0000 37.4193 -41.6236 2.3026 -2.0446 7.1250 -0.0000 -0.0000 -11.4406 -26.8549 -5.1346
0.00 0.00 0.00 40.5047 -81.4116 -41.8903 0.0000 0.0000 0.0000 -29.0389 -1.2311 -12.3919 2.5954 10.0094 29.0072 0.7298 -0.3497 -16.0296 0.0290 1.0994 3.0223 0.0000 0.0000 0.0000 10.2588 15.5247 -24.3138 -6.3190 -14.7305 46.2491 -1.2865 8.5013 -20.3075 -1.2723 7.1490 -20.1576 -7.1638 1.4872 7.7130 -4.1451 1.2531 4.2402 -0.3718 0.4617 0.0156 -6.8939 -2.3451 -1.8181 -0.0148 -4.0590 33.5888 0.6971 -3.2204 11.3546 0.0000 -0.0000 0.0000 -77.2065 -3.9380 24.6035 19.4874 -30.0198 -5.2725 -0.0000 -0.0000 3.2868 36.8137 21.9312 15.6183 -7.1250 0.0000 -0.0000 8.9167 56.4560 2.5185 0.0000 -0.0000 0.0000 72.7917 -0.8274 34.8608 -15.1930 24.4144 -3.3053 0.0000 0.0000 43.5347 -39.7690 0.9419 -0.7838 7.1250 -0.0000 -0.0000 -10.2385 -28.6909 -4.1264
0.00 0.00 0.00 3.8640 -52.9614 -2.9919 0.0000 0.0000 0.0000 -18.3230 -12.5088 -4.1956 1.4437 7.5959 21.4933 -0.2868 -14.1482 -6.0821 0.0002 0.0894 0.2457 0.0000 0.0000 0.0000 -1.1124 24.5543 -17.1979 -3.1018 -10.8580 31.8025 -0.1126 -1.0421 -6.8093 -0.4317 4.2167 -11.6870 -4.2097 0.1277 8.8256 -1.0133 -0.2476 5.3154 1.3359 -0.2511 0.5784 -8.3923 -4.1930 0.6432 2.3111 -6.9486 33.4048 1.6209 -4.2905 11.0922 -0.0000 0.0000 0.0000 -75.8397 -0.4529 15.4530 15.3303 -24.6043 -3.3623 -0.0000 -0.0000 5.7706 36.9483 28.4476 19.7119 -7.1250 0.0000 -0.0000 8.3154 63.9290 3.8279 -0.0000 0.0000 0.0000 76.7505 -8.2996 26.3031 -10.3593 17.2996 -1.5801 0.0000 0.0000 43.2562 -34.9083 5.9087 -4.1089 7.1250 -0.0000 -0.0000 -6.0146 -22.7981 -3.2314
0.00 0.00 0.00 3.6404 -41.0371 0.6006 0.0000 0.0000 0.0000 -11.1618 -18.9614 -7.8794 1.4427 7.5933 21.4856 -1.0608 -19.7985 -1.7809 0.0148 0.7866 2.1619 0.0000 0.0000 0.0000 4.5972 20.2582 -10.0906 -2.5839 -9.9888 28.9405 -1.0973 0.6861 -19.5887 -0.3014 3.5300 -9.7579 -2.3372 -0.1515 9.1600 -0.4317 -0.4611 5.2577 0.9067 -0.3079 0.3289 -8.6375 -2.9578 1.9445 1.9780 -4.8080 31.5285 1.7960 -3.2481 9.9796 0.0000 -0.0000 0.0000 -74.4962 4.7120 12.7403 13.9253 -22.6278 -2.7993 -0.0000 -0.0000 8.1825 33.8342 28.1445 17.5460 -7.1250 0.0000 -0.0000 4.2306 62.7133 1.8221 0.0000 -0.0000 0.0000 78.4772 -12.0312 27.9722 -10.4211 17.3956 -1.5986 0.0000 0.0000 35.4862 -29.2179 8.0621 -4.4850 7.1250 -0.0000 -0.0000 -1.7064 -20.7631 -0.9911
0.00 0.00 0.00 7.8136 -27.2902 10.4381 0.0000 0.0000 0.0000 -14.8396 -2.4909 -35.7902 3.5000 11.4636 33.8598 0.3363 -1.1601 -10.6091 0.0037 -0.3941 -1.0828 0.0000 0.0000 0.0000 -1.7647 16.2203 -36.7776 -5.5638 -13.9919 43.2049 -1.2229 -0.7136 -21.1735 -0.0068 -0.5311 1.4593 -3.5255 1.1848 16.4511 -1.5142 0.8935 9.8856 0.2610 0.2727 1.2835 -5.1986 -0.2985 2.2594 5.8975 -1.6613 25.6476 2.7506 -0.8685 7.5676 0.0000 -0.0000 0.0000 -82.6281 6.0266 40.6673 12.8857 -21.1195 -2.4119 -0.0000 -0.0000 15.4438 30.5160 21.2688 12.0687 -7.1250 0.0000 -0.0000 1.9618 54.2846 0.4478 0.0000 -0.0000 0.0000 80.3945 -5.9867 42.6921 -19.1009 29.5439 -5.0805 0.0000 0.0000 5.4580 -24.5777 7.5505 -3.4392 7.1250 -0.0000 -0.0000 1.6273 -21.6883 0.9111
0.00 0.00 0.00 2.9029 -23.8987 9.9753 0.0000 0.0000 0.0000 -10.6235 -1.6133 -48.2634 6.8976 15.2451 48.4860 0.1381 -8.3497 -8.2903 0.0428 -1.3357 -3.6730 0.0000 0.0000 0.0000 0.9686 8.9339 -45.9746 -7.8819 -16.0317 52.1360 -0.8397 5.2179 -16.3471 -0.0041 -0.4131 1.1350 -3.2835 3.4804 20.0527 -2.0350 3.7088 11.9039 -0.9859 1.6704 1.6367 -2.8424 -1.0189 5.1913 5.8774 -2.5618 23.1587 2.2778 -1.1258 6.2765 0.0000 0.0000 0.0000 -83.5704 8.6687 43.1524 18.8990 -29.2930 -4.9813 -0.0000 0.0000 -0.8967 32.1116 16.8791 10.3272 -7.1250 0.0000 -0.0000 4.2298 49.6419 0.4849 0.0000 0.0000 0.0000 86.7153 -7.7250 45.8011 -20.5898 31.3463 -5.8351 0.0000 -0.0000 -7.4374 -28.4741 3.8179 -2.0683 7.1250 -0.0000 -0.0000 -1.3938 -25.6382 -0.6537
